<svg width="18" height="18" viewBox="0 0 18 18" fill="none" xmlns="http://www.w3.org/2000/svg">
<g id="pin 1">
<g id="Group">
<g id="Group_2">
<g id="Group_3">
<path id="Vector" d="M9 0C5.33351 0 2.35072 2.98279 2.35072 6.64928C2.35072 7.85632 2.89205 9.1545 2.91473 9.20926C3.08957 9.62425 3.43455 10.2688 3.68331 10.6467L8.24237 17.5545C8.42894 17.8377 8.70508 18 9 18C9.29491 18 9.57105 17.8377 9.75763 17.5549L14.3171 10.6467C14.5662 10.2688 14.9108 9.62425 15.0857 9.20926C15.1083 9.15489 15.6493 7.85671 15.6493 6.64928C15.6493 2.98279 12.6665 0 9 0ZM14.3644 8.90574C14.2083 9.27771 13.8872 9.87731 13.6639 10.216L9.10443 17.1243C9.01447 17.2608 8.98592 17.2608 8.89596 17.1243L4.3365 10.216C4.11317 9.87731 3.79205 9.27731 3.63598 8.90534C3.62933 8.88931 3.13298 7.69439 3.13298 6.64928C3.13298 3.41421 5.76493 0.782269 9 0.782269C12.2351 0.782269 14.867 3.41421 14.867 6.64928C14.867 7.69596 14.3695 8.894 14.3644 8.90574Z" fill="black"/>
<path id="Vector_2" d="M9 3.12952C7.0588 3.12952 5.47979 4.70892 5.47979 6.64972C5.47979 8.59053 7.0588 10.1699 9 10.1699C10.9412 10.1699 12.5202 8.59053 12.5202 6.64972C12.5202 4.70892 10.9412 3.12952 9 3.12952ZM9 9.38766C7.49061 9.38766 6.26206 8.1595 6.26206 6.64972C6.26206 5.13995 7.49061 3.91179 9 3.91179C10.5094 3.91179 11.7379 5.13995 11.7379 6.64972C11.7379 8.1595 10.5094 9.38766 9 9.38766Z" fill="black"/>
</g>
</g>
</g>
</g>
</svg>
