<svg width="257" height="52" viewBox="0 0 257 52" fill="none" xmlns="http://www.w3.org/2000/svg">
<path d="M75.16 38.6H75.68V39H63.52V38.6H64.04C64.7333 38.6 65.32 38.36 65.8 37.88C66.3067 37.3733 66.5733 36.7733 66.6 36.08V12.64L62.8 12.8C60.2933 12.9067 59.04 13.84 59.04 15.6C59.04 16.32 59.28 16.9333 59.76 17.44C60.2667 17.92 60.96 18.16 61.84 18.16C61.92 18.16 62 18.16 62.08 18.16V18.4C61.5467 18.5867 61.0933 18.68 60.72 18.68C59.52 18.68 58.6 18.2533 57.96 17.4C57.5067 16.8133 57.28 16.1467 57.28 15.4C57.28 14.2267 57.7467 13.2667 58.68 12.52C59.5867 11.7467 61 11.2933 62.92 11.16C63.2667 11.1333 64.3867 11.08 66.28 11C70.6 10.84 73.7333 10.5733 75.68 10.2L75.76 10.6C74.6133 10.7867 73.8 11.1733 73.32 11.76C72.8667 12.3467 72.6267 13.2133 72.6 14.36V36.08C72.6267 36.7733 72.88 37.3733 73.36 37.88C73.8667 38.36 74.4667 38.6 75.16 38.6ZM79.2422 35.28C79.2422 33.36 79.6555 31.72 80.4822 30.36H80.8422C80.8155 30.5733 80.8022 30.7867 80.8022 31C80.8022 32.84 81.4555 34.4533 82.7622 35.84C84.0955 37.2 85.9089 37.88 88.2022 37.88C89.9889 37.88 91.3755 37.4533 92.3622 36.6C93.3755 35.7467 93.8822 34.6667 93.8822 33.36C93.8822 31.7867 92.8155 30.4133 90.6822 29.24L83.7222 24.64C82.3355 23.84 81.3355 22.88 80.7222 21.76C80.1355 20.6133 79.8422 19.4533 79.8422 18.28C79.8422 15.7733 80.6289 13.84 82.2022 12.48C83.8022 11.12 85.8422 10.44 88.3222 10.44C89.7889 10.44 91.6022 10.5733 93.7622 10.84H96.2822L95.7622 16.72H95.3622C95.3622 15.3333 94.8422 14.2267 93.8022 13.4C92.7889 12.5467 91.4289 12.12 89.7222 12.12C87.6422 12.12 86.1355 12.76 85.2022 14.04C84.7222 14.6533 84.4822 15.3467 84.4822 16.12C84.4822 17.4 85.4155 18.5867 87.2822 19.68L94.9222 24.64C97.3222 26.0267 98.5222 28.0667 98.5222 30.76C98.5222 33.6133 97.5489 35.8 95.6022 37.32C93.6822 38.8133 91.1222 39.56 87.9222 39.56C86.1089 39.56 84.4289 39.3467 82.8822 38.92C81.3622 38.4667 80.2422 37.8667 79.5222 37.12C79.3355 36.6133 79.2422 36 79.2422 35.28ZM116.727 12.64V36.12C116.754 36.8133 117.007 37.4 117.487 37.88C117.994 38.36 118.594 38.6 119.287 38.6H119.767L119.807 39H107.647V38.6H108.167C108.834 38.6 109.407 38.36 109.887 37.88C110.394 37.4 110.674 36.8267 110.727 36.16V12.64H105.327C104.101 12.6667 103.127 13.0533 102.407 13.8C101.687 14.5467 101.327 15.52 101.327 16.72V17.2H100.927V10.24C101.301 10.4 101.967 10.56 102.927 10.72C103.914 10.88 104.821 10.96 105.647 10.96H121.767C123.074 10.9333 124.141 10.8267 124.967 10.64C125.794 10.4533 126.301 10.32 126.487 10.24V17.2H126.087V16.72C126.087 15.52 125.727 14.5467 125.007 13.8C124.287 13.0533 123.314 12.6667 122.087 12.64H116.727ZM129.208 38.6C129.901 38.6 130.488 38.36 130.968 37.88C131.474 37.3733 131.741 36.7733 131.768 36.08V13.88C131.741 13.1867 131.474 12.6 130.968 12.12C130.488 11.64 129.901 11.4 129.208 11.4H128.688V11H140.848L140.808 11.4H140.328C139.634 11.4 139.034 11.64 138.528 12.12C138.021 12.6 137.768 13.1867 137.768 13.88V36.08C137.768 36.7733 138.021 37.3733 138.528 37.88C139.034 38.36 139.634 38.6 140.328 38.6H140.808L140.848 39H128.688V38.6H129.208ZM190.86 39H178.18V38.6H178.7C179.393 38.6 179.98 38.36 180.46 37.88C180.967 37.4 181.233 36.8133 181.26 36.12V13.88C181.233 13.1867 180.967 12.6 180.46 12.12C179.98 11.64 179.393 11.4 178.7 11.4H178.18V11H189.78C192.873 11 195.327 11.56 197.14 12.68C198.98 13.8 199.913 15.52 199.94 17.84C199.913 19.0133 199.66 20.04 199.18 20.92C198.3 22.5733 196.913 23.52 195.02 23.76C197.073 23.9467 198.767 24.72 200.1 26.08C201.433 27.4133 202.1 29.12 202.1 31.2C202.1 33.7067 201.087 35.64 199.06 37C197.06 38.3333 194.327 39 190.86 39ZM193.54 18.36C193.513 14.6 191.807 12.72 188.42 12.72H187.26V37.16H189.1C189.127 37.16 189.153 37.16 189.18 37.16C191.02 37.16 192.487 36.6267 193.58 35.56C194.673 34.4933 195.22 32.88 195.22 30.72C195.22 29.2 194.913 27.9467 194.3 26.96C193.153 25.12 191.26 24.2 188.62 24.2V23.84C190.007 23.84 191.167 23.4 192.1 22.52C193.033 21.6133 193.513 20.2267 193.54 18.36ZM232.934 38.6H233.294V39H220.534V38.6H220.894C221.481 38.6 221.907 38.4267 222.174 38.08C222.467 37.7067 222.614 37.36 222.614 37.04C222.614 36.72 222.547 36.4 222.414 36.08L220.454 31.16H211.094L209.014 36.08C208.881 36.4267 208.814 36.76 208.814 37.08C208.814 37.3733 208.947 37.7067 209.214 38.08C209.507 38.4267 209.961 38.6 210.574 38.6H210.894V39H202.334V38.6H202.694C203.307 38.6 203.921 38.4133 204.534 38.04C205.147 37.6667 205.654 37.1067 206.054 36.36L215.294 15.44C216.547 12.8 217.214 11.0533 217.294 10.2H217.654L229.534 36.28C229.934 37.0533 230.441 37.64 231.054 38.04C231.667 38.4133 232.294 38.6 232.934 38.6ZM211.774 29.48H219.774L215.894 19.64L211.774 29.48ZM234.247 38.6C234.94 38.6 235.527 38.36 236.007 37.88C236.514 37.3733 236.78 36.7733 236.807 36.08V13.92C236.78 13.2267 236.514 12.64 236.007 12.16C235.527 11.6533 234.94 11.4 234.247 11.4H233.727V11H245.887L245.847 11.4H245.367C244.674 11.4 244.074 11.6533 243.567 12.16C243.06 12.64 242.807 13.2267 242.807 13.92V37.28H248.047C249.994 37.28 251.62 36.72 252.927 35.6C254.26 34.48 255.247 32.8933 255.887 30.84H256.287L254.447 39H233.727V38.6H234.247Z" fill="#262626"/>
<path d="M186.339 44.8C190.099 44.8 193.179 43.8267 195.579 41.88L195.819 42.04C195.686 44.2 194.672 46.04 192.779 47.56C190.646 49.2933 187.992 50.16 184.819 50.16C181.672 50.16 178.259 49.2667 174.579 47.48C172.926 46.6533 170.192 45.0133 166.379 42.56C165.312 41.84 164.099 41.1867 162.739 40.6C161.379 40.0133 160.112 39.6667 158.939 39.56C154.139 39.4533 150.326 38.1067 147.499 35.52C144.699 32.9067 143.299 29.4 143.299 25C143.299 22.04 143.952 19.4667 145.259 17.28C146.592 15.0667 148.472 13.3733 150.899 12.2C153.326 11.0267 156.166 10.44 159.419 10.44C164.352 10.44 168.272 11.7467 171.179 14.36C174.086 16.9733 175.539 20.52 175.539 25C175.539 28.5467 174.606 31.5333 172.739 33.96C170.872 36.3867 168.272 38.0267 164.939 38.88C166.619 39.2267 168.286 39.68 169.939 40.24C171.619 40.8267 174.019 41.7333 177.139 42.96C180.286 44.1867 183.352 44.8 186.339 44.8ZM152.419 15.6C150.712 17.8933 149.859 21.0267 149.859 25C149.859 28.9733 150.712 32.12 152.419 34.44C154.152 36.7333 156.486 37.88 159.419 37.88C162.352 37.88 164.672 36.7333 166.379 34.44C168.112 32.12 168.979 28.9733 168.979 25C168.979 22.3867 168.592 20.1067 167.819 18.16C167.046 16.2133 165.939 14.72 164.499 13.68C163.059 12.64 161.366 12.12 159.419 12.12C156.486 12.12 154.152 13.28 152.419 15.6Z" fill="#DB9E30"/>
<path d="M5.72915 12.4999C6.28168 12.4999 6.81158 12.2804 7.20229 11.8897C7.59299 11.499 7.81248 10.9691 7.81248 10.4166C7.81248 9.86405 7.59299 9.33415 7.20229 8.94345C6.81158 8.55275 6.28168 8.33325 5.72915 8.33325C5.17661 8.33325 4.64671 8.55275 4.25601 8.94345C3.86531 9.33415 3.64581 9.86405 3.64581 10.4166C3.64581 10.9691 3.86531 11.499 4.25601 11.8897C4.64671 12.2804 5.17661 12.4999 5.72915 12.4999ZM44.2708 12.4999C44.8233 12.4999 45.3533 12.2804 45.744 11.8897C46.1347 11.499 46.3541 10.9691 46.3541 10.4166C46.3541 9.86405 46.1347 9.33415 45.744 8.94345C45.3533 8.55275 44.8233 8.33325 44.2708 8.33325C43.7183 8.33325 43.1884 8.55275 42.7977 8.94345C42.407 9.33415 42.1875 9.86405 42.1875 10.4166C42.1875 10.9691 42.407 11.499 42.7977 11.8897C43.1884 12.2804 43.7183 12.4999 44.2708 12.4999ZM5.72915 14.5833C6.14355 14.5833 6.54098 14.7479 6.834 15.0409C7.12703 15.3339 7.29165 15.7314 7.29165 16.1458V27.0833H12.4958C11.8085 25.433 11.4559 23.6626 11.4583 21.8749C11.4583 19.7416 12.4208 17.8333 13.6625 16.2499C14.9104 14.6562 16.5333 13.2687 18.0937 12.1395C20.0189 10.7576 22.0654 9.55339 24.2083 8.54159L24.3187 8.4895L24.35 8.47492L24.3583 8.47075H24.3625C24.5637 8.38077 24.7816 8.33425 25.0021 8.33425C25.2225 8.33425 25.4404 8.38077 25.6416 8.47075H25.6458L25.6541 8.47492L25.6854 8.4895L25.7958 8.54159C26.4101 8.83247 27.0165 9.13952 27.6146 9.46242C28.7791 10.0895 30.3396 11.0041 31.9062 12.1395C33.4687 13.2687 35.0937 14.6562 36.3396 16.2478C37.5812 17.8312 38.5437 19.7416 38.5437 21.8749C38.5462 23.6626 38.1935 25.433 37.5062 27.0833H42.7083V16.1458C42.7083 15.7314 42.8729 15.3339 43.166 15.0409C43.459 14.7479 43.8564 14.5833 44.2708 14.5833C44.6852 14.5833 45.0826 14.7479 45.3757 15.0409C45.6687 15.3339 45.8333 15.7314 45.8333 16.1458V43.2291C45.8333 44.6666 44.6666 45.8333 43.2291 45.8333H31.7708C30.3333 45.8333 29.1666 44.6666 29.1666 43.2291V39.5833C29.1666 38.4782 28.7277 37.4184 27.9463 36.637C27.1649 35.8556 26.105 35.4166 25 35.4166C23.8949 35.4166 22.8351 35.8556 22.0537 36.637C21.2723 37.4184 20.8333 38.4782 20.8333 39.5833V43.2291C20.8333 44.6666 19.6666 45.8333 18.2291 45.8333H6.77081C5.33331 45.8333 4.16665 44.6666 4.16665 43.2291V16.1458C4.16665 15.7314 4.33127 15.3339 4.62429 15.0409C4.91732 14.7479 5.31475 14.5833 5.72915 14.5833Z" fill="#DB9E30"/>
</svg>
